<svg width="18" height="18" viewBox="0 0 18 18" fill="none" xmlns="http://www.w3.org/2000/svg">
<path d="M9.00014 0.692383C4.4125 0.692383 0.692383 4.50594 0.692383 9.2104C0.692383 12.9739 3.07281 16.1668 6.37374 17.2931C6.78893 17.372 6.94136 17.1083 6.94136 16.8834C6.94136 16.6802 6.93366 16.0092 6.93008 15.2975C4.61886 15.8128 4.13116 14.2925 4.13116 14.2925C3.75325 13.3079 3.20873 13.0461 3.20873 13.0461C2.45497 12.5174 3.26555 12.5283 3.26555 12.5283C4.09979 12.5884 4.53906 13.4061 4.53906 13.4061C5.28003 14.7083 6.48256 14.3318 6.95663 14.1142C7.0312 13.5636 7.2465 13.1879 7.48409 12.9752C5.63882 12.7598 3.69904 12.0294 3.69904 8.76552C3.69904 7.83554 4.02358 7.07568 4.55502 6.47916C4.46876 6.26461 4.1844 5.39825 4.6355 4.22496C4.6355 4.22496 5.33313 3.99603 6.92073 5.09809C7.58342 4.90936 8.29412 4.81471 9.00014 4.81147C9.70617 4.81471 10.4174 4.90936 11.0813 5.09809C12.667 3.99603 13.3637 4.22496 13.3637 4.22496C13.8159 5.39825 13.5314 6.26461 13.4451 6.47916C13.9778 7.07568 14.3001 7.83554 14.3001 8.76552C14.3001 12.0371 12.3567 12.7575 10.5067 12.9684C10.8047 13.2327 11.0702 13.7511 11.0702 14.5458C11.0702 15.6855 11.0606 16.6028 11.0606 16.8834C11.0606 17.11 11.2101 17.3756 11.6312 17.292C14.9304 16.1644 17.3078 12.9726 17.3078 9.2104C17.3078 4.50594 13.5882 0.692383 9.00014 0.692383" fill="white"/>
</svg>
