<svg width="219" height="24" viewBox="0 0 219 24" fill="none" xmlns="http://www.w3.org/2000/svg">
<circle cx="12" cy="12" r="12" fill="#414141"/>
<g clip-path="url(#clip0_32_150)">
<path d="M12.8275 12.4742C12.8275 14.444 11.1894 16.0407 9.16895 16.0407C7.14846 16.0407 5.51031 14.444 5.51031 12.4742C5.51031 10.5045 7.14833 8.90759 9.16895 8.90759C11.1896 8.90759 12.8275 10.5045 12.8275 12.4742Z" fill="white"/>
<path d="M16.8408 12.474C16.8408 14.3282 16.0218 15.8313 15.0115 15.8313C14.0012 15.8313 13.1822 14.3281 13.1822 12.474C13.1822 10.62 14.0012 9.11682 15.0115 9.11682C16.0218 9.1167 16.8408 10.6198 16.8408 12.474Z" fill="white"/>
<path d="M18.4826 12.4744C18.4826 14.1357 18.1946 15.4824 17.8392 15.4824C17.4839 15.4824 17.1959 14.1357 17.1959 12.4744C17.1959 10.8131 17.4839 9.46643 17.8392 9.46643C18.1946 9.46643 18.4826 10.8131 18.4826 12.4744Z" fill="white"/>
</g>
<circle cx="51" cy="12" r="12" fill="#414141"/>
<path d="M50.8399 9.16275L50.8639 9.60193L50.4637 9.54816C49.0071 9.34201 47.7345 8.6429 46.654 7.46876L46.1257 6.88617L45.9897 7.31639C45.7015 8.27542 45.8856 9.28823 46.4859 9.96941C46.806 10.3459 46.734 10.3996 46.1818 10.1756C45.9897 10.1039 45.8216 10.0501 45.8056 10.077C45.7496 10.1397 45.9416 10.9553 46.0937 11.278C46.3018 11.7261 46.726 12.1653 47.1902 12.4252L47.5824 12.6314L47.1182 12.6404C46.67 12.6404 46.654 12.6493 46.702 12.8375C46.8621 13.4201 47.4944 14.0386 48.1987 14.3075L48.6949 14.4957L48.2627 14.7825C47.6224 15.1948 46.8701 15.4278 46.1177 15.4457C45.7576 15.4547 45.4614 15.4906 45.4614 15.5175C45.4614 15.6071 46.4379 16.109 47.0061 16.3062C48.7109 16.8888 50.7359 16.6378 52.2566 15.6429C53.3371 14.9349 54.4176 13.5277 54.9218 12.1653C55.1939 11.4393 55.466 10.1128 55.466 9.47645C55.466 9.06416 55.49 9.01038 55.9383 8.51742C56.2024 8.23061 56.4505 7.91691 56.4985 7.82728C56.5785 7.65698 56.5705 7.65698 56.1624 7.80935C55.482 8.07824 55.386 8.04239 55.7222 7.63906C55.9703 7.35224 56.2664 6.8324 56.2664 6.68003C56.2664 6.65314 56.1463 6.69795 56.0103 6.77862C55.8662 6.86825 55.5461 7.00269 55.306 7.08336L54.8738 7.23573L54.4816 6.93995C54.2655 6.77862 53.9613 6.59936 53.8013 6.54558C53.3931 6.4201 52.7688 6.43803 52.4006 6.58143C51.4002 6.98477 50.7679 8.02446 50.8399 9.16275Z" fill="white"/>
<circle cx="129" cy="12" r="12" fill="#414141"/>
<path d="M129 3.69238C124.412 3.69238 120.692 7.50594 120.692 12.2104C120.692 15.9739 123.073 19.1668 126.374 20.2931C126.789 20.372 126.941 20.1083 126.941 19.8834C126.941 19.6802 126.934 19.0092 126.93 18.2975C124.619 18.8128 124.131 17.2925 124.131 17.2925C123.753 16.3079 123.209 16.0461 123.209 16.0461C122.455 15.5174 123.266 15.5283 123.266 15.5283C124.1 15.5884 124.539 16.4061 124.539 16.4061C125.28 17.7083 126.483 17.3318 126.957 17.1142C127.031 16.5636 127.247 16.1879 127.484 15.9752C125.639 15.7598 123.699 15.0294 123.699 11.7655C123.699 10.8355 124.024 10.0757 124.555 9.47916C124.469 9.26461 124.184 8.39825 124.636 7.22496C124.636 7.22496 125.333 6.99603 126.921 8.09809C127.583 7.90936 128.294 7.81471 129 7.81147C129.706 7.81471 130.417 7.90936 131.081 8.09809C132.667 6.99603 133.364 7.22496 133.364 7.22496C133.816 8.39825 133.531 9.26461 133.445 9.47916C133.978 10.0757 134.3 10.8355 134.3 11.7655C134.3 15.0371 132.357 15.7575 130.507 15.9684C130.805 16.2327 131.07 16.7511 131.07 17.5458C131.07 18.6855 131.061 19.6028 131.061 19.8834C131.061 20.11 131.21 20.3756 131.631 20.292C134.93 19.1644 137.308 15.9726 137.308 12.2104C137.308 7.50594 133.588 3.69238 129 3.69238Z" fill="white"/>
<path d="M123.863 15.8638C123.845 15.9057 123.78 15.9183 123.721 15.8895C123.661 15.862 123.627 15.8049 123.647 15.7629C123.665 15.7197 123.73 15.7077 123.79 15.7366C123.85 15.7641 123.884 15.8218 123.863 15.8638Z" fill="#161514"/>
<path d="M124.199 16.2448C124.16 16.2821 124.082 16.2648 124.03 16.2059C123.976 16.1471 123.966 16.0685 124.006 16.0306C124.046 15.9933 124.121 16.0108 124.176 16.0696C124.23 16.1291 124.241 16.2071 124.199 16.2448Z" fill="#161514"/>
<path d="M124.526 16.7308C124.476 16.7666 124.392 16.733 124.341 16.658C124.29 16.583 124.29 16.493 124.342 16.457C124.394 16.421 124.476 16.4534 124.528 16.5278C124.578 16.6041 124.578 16.694 124.526 16.7308Z" fill="#161514"/>
<path d="M124.974 17.1999C124.929 17.2509 124.832 17.2372 124.761 17.1676C124.689 17.0996 124.668 17.0031 124.714 16.9521C124.76 16.901 124.857 16.9154 124.929 16.9844C125.001 17.0522 125.023 17.1495 124.974 17.1999Z" fill="#161514"/>
<path d="M125.592 17.4724C125.572 17.5385 125.479 17.5685 125.385 17.5404C125.291 17.5115 125.23 17.4341 125.249 17.3674C125.268 17.3009 125.362 17.2696 125.456 17.2997C125.55 17.3284 125.612 17.4052 125.592 17.4724Z" fill="#161514"/>
<path d="M126.271 17.5229C126.273 17.5924 126.193 17.6501 126.095 17.6514C125.996 17.6536 125.916 17.5973 125.914 17.5289C125.914 17.4586 125.992 17.4015 126.091 17.3998C126.19 17.3979 126.271 17.4537 126.271 17.5229Z" fill="#161514"/>
<path d="M126.902 17.4137C126.914 17.4816 126.845 17.5513 126.748 17.5698C126.651 17.5877 126.562 17.5458 126.55 17.4785C126.538 17.4089 126.608 17.3393 126.704 17.3212C126.802 17.3039 126.89 17.3447 126.902 17.4137Z" fill="#161514"/>
<circle cx="168" cy="12" r="12" fill="#414141"/>
<path d="M173.6 7H162.4C161.63 7 161.007 7.5625 161.007 8.25L161 15.75C161 16.4375 161.63 17 162.4 17H173.6C174.37 17 175 16.4375 175 15.75V8.25C175 7.5625 174.37 7 173.6 7ZM173.6 9.5L168 12.625L162.4 9.5V8.25L168 11.375L173.6 8.25V9.5Z" fill="#F1F1F1"/>
<circle cx="207" cy="12" r="12" fill="#414141"/>
<path d="M212.964 8.01792L210.992 17.3234C210.838 17.9867 210.48 18.1623 209.919 17.8502L206.932 15.6262L205.482 17.0308C205.289 17.2259 205.086 17.3234 204.873 17.3234L205.105 14.2509L210.644 9.21769C210.78 9.08113 210.78 9.0031 210.644 8.98359C210.528 8.94457 210.403 8.97384 210.267 9.07138L203.424 13.4315L200.466 12.4951C200.137 12.3976 199.982 12.2513 200.002 12.0562C200.021 11.8611 200.224 11.6953 200.611 11.5587L212.123 7.05225C212.413 6.95471 212.645 6.99373 212.819 7.16931C212.993 7.32537 213.042 7.60825 212.964 8.01792Z" fill="#F1F1F1"/>
<circle cx="90" cy="12" r="12" fill="#414141"/>
<path fill-rule="evenodd" clip-rule="evenodd" d="M86.6547 6.97611C86.6547 7.77521 86.0532 8.41463 85.0874 8.41463H85.0697C84.1398 8.41463 83.5386 7.77521 83.5386 6.97611C83.5386 6.1601 84.1581 5.53857 85.1056 5.53857C86.0532 5.53857 86.6367 6.1601 86.6547 6.97611ZM86.4725 9.55073V17.8732H83.7026V9.55073H86.4725ZM96.4609 17.8726L96.461 13.1008C96.461 10.5445 95.0946 9.35474 93.2718 9.35474C91.8012 9.35474 91.1428 10.1625 90.7751 10.7292V9.55038H88.0049C88.0414 10.3313 88.0049 17.8728 88.0049 17.8728H90.7751V13.2249C90.7751 12.9762 90.7931 12.728 90.8663 12.55C91.0665 12.053 91.5223 11.5386 92.2876 11.5386C93.2903 11.5386 93.6911 12.3017 93.6911 13.4201V17.8726H96.4609Z" fill="white"/>
<defs>
<clipPath id="clip0_32_150">
<rect width="20.3077" height="13.8462" fill="white" transform="translate(1.84619 5.53857)"/>
</clipPath>
</defs>
</svg>
